<svg xmlns="http://www.w3.org/2000/svg" xmlns:xlink="http://www.w3.org/1999/xlink" width="150" zoomAndPan="magnify" viewBox="0 0 112.5 112.499997" height="150" preserveAspectRatio="xMidYMid meet" version="1.0"><defs><clipPath id="102b202df1"><path d="M 0.863281 7.027344 L 111.375 7.027344 L 111.375 104.84375 L 0.863281 104.84375 Z M 0.863281 7.027344 " clip-rule="nonzero"/></clipPath><clipPath id="cda4532083"><path d="M 0.863281 104 L 111.375 104 L 111.375 104.84375 L 0.863281 104.84375 Z M 0.863281 104 " clip-rule="nonzero"/></clipPath><clipPath id="2870c9f1f3"><path d="M 0.863281 102 L 111.375 102 L 111.375 104.84375 L 0.863281 104.84375 Z M 0.863281 102 " clip-rule="nonzero"/></clipPath></defs><g clip-path="url(#102b202df1)"><path fill="#030201" d="M 9.328125 6.75 L 37.042969 6.75 L 42.375 16.878906 L 44.0625 20.046875 L 44.738281 21.316406 C 45.179688 22.148438 45.625 22.976562 46.070312 23.808594 L 46.726562 25.042969 C 46.917969 25.398438 47.105469 25.753906 47.300781 26.117188 C 47.707031 27.007812 47.707031 27.007812 47.707031 28.074219 L 42.375 28.074219 L 42.375 31.269531 L 33.847656 31.269531 C 33.679688 35.058594 33.679688 35.058594 34.378906 38.734375 C 36.113281 41.300781 38.25 43.269531 40.542969 45.328125 C 41.132812 45.886719 41.722656 46.441406 42.308594 47 C 43.734375 48.347656 45.179688 49.679688 46.640625 50.992188 C 45.710938 53.007812 44.589844 54.128906 42.910156 55.589844 L 41.476562 56.84375 L 40.242188 57.921875 L 39.175781 58.988281 C 39.171875 60.453125 39.171875 60.453125 39.402344 62.148438 L 39.625 64.066406 L 39.875 66.085938 L 40.109375 68.082031 C 40.425781 70.757812 40.746094 73.40625 41.308594 76.046875 C 43.046875 74.609375 44.429688 73.203125 45.574219 71.25 C 45.785156 68.683594 45.5 66.308594 45.039062 63.785156 C 46.746094 62.964844 48.457031 62.152344 50.171875 61.355469 L 51.628906 60.648438 C 55.195312 58.996094 55.195312 58.996094 57.332031 58.972656 C 59.578125 59.761719 61.738281 60.691406 63.894531 61.6875 L 65.238281 62.296875 C 66.324219 62.789062 67.410156 63.285156 68.492188 63.785156 L 68.109375 65.113281 C 67.664062 67.054688 67.382812 68.71875 67.425781 70.714844 C 68.53125 72.828125 69.925781 74.449219 71.691406 76.046875 L 72.226562 76.046875 C 72.496094 74.015625 72.761719 71.980469 73.023438 69.949219 L 73.253906 68.222656 C 73.46875 66.566406 73.652344 64.914062 73.824219 63.253906 L 73.996094 61.882812 C 74.089844 60.648438 74.105469 59.664062 73.824219 58.457031 C 72.863281 57.066406 71.6875 56.09375 70.359375 55.058594 C 69.175781 54.089844 68.019531 53.089844 66.894531 52.058594 L 66.894531 50.460938 C 67.828125 49.394531 68.804688 48.375 69.828125 47.394531 L 70.707031 46.53125 C 72.644531 44.648438 74.625 42.824219 76.691406 41.078125 L 77.554688 40.332031 L 78.445312 39.675781 C 79.304688 38.6875 79.304688 38.6875 79.425781 36.945312 L 79.519531 34.902344 L 79.6875 31.269531 L 71.160156 31.269531 L 70.625 28.074219 L 65.828125 28.074219 C 66.148438 26.046875 66.742188 24.484375 67.699219 22.671875 C 67.972656 22.152344 68.246094 21.636719 68.527344 21.101562 L 69.394531 19.476562 L 70.230469 17.890625 C 75.695312 7.546875 75.695312 7.546875 76.488281 6.75 L 103.671875 6.75 L 103.671875 61.652344 L 97.808594 61.652344 L 97.808594 97.898438 L 102.609375 99.5 C 104.371094 100.179688 106.125 100.875 107.878906 101.585938 C 109.503906 102.152344 111.03125 102.46875 112.734375 102.699219 L 112.734375 103.761719 L 114.867188 103.761719 L 114.867188 104.828125 L 115.933594 104.828125 L 115.933594 105.894531 L 114.867188 105.894531 L 114.867188 106.960938 L 112.734375 106.960938 L 112.734375 108.027344 L 0.796875 108.027344 L 0.796875 106.960938 L -1.332031 106.960938 L -1.332031 105.894531 L -2.398438 105.894531 L -2.398438 104.828125 L -1.332031 104.828125 L -1.332031 103.761719 L 0.796875 103.761719 L 0.796875 102.699219 L 2.617188 102.285156 C 5.191406 101.640625 7.605469 100.695312 10.058594 99.699219 C 10.90625 99.355469 11.753906 99.015625 12.605469 98.679688 L 13.722656 98.226562 C 14.65625 97.898438 14.65625 97.898438 15.722656 97.898438 L 15.722656 61.652344 L 9.328125 61.652344 Z M 75.957031 16.347656 L 72.226562 23.808594 L 74.355469 23.808594 L 74.890625 27.007812 L 83.417969 27.007812 L 83.417969 22.742188 L 86.617188 22.742188 L 86.617188 20.078125 L 85.464844 20.074219 C 81.324219 19.90625 81.324219 19.90625 79.570312 18.796875 C 78.589844 17.914062 78.589844 17.914062 77.738281 17.027344 L 77.023438 16.347656 Z M 36.511719 16.347656 L 35.851562 17.027344 C 34.867188 18.023438 33.972656 18.804688 32.78125 19.542969 C 30.820312 19.960938 28.917969 20.070312 26.917969 20.078125 L 26.917969 22.742188 L 30.117188 22.742188 L 30.117188 27.007812 L 38.644531 27.007812 L 39.175781 24.34375 L 40.777344 23.808594 C 40.007812 21.019531 38.742188 18.675781 37.042969 16.347656 Z M 56.234375 65.386719 C 55 66.441406 55 66.441406 53.734375 67.816406 L 52.398438 69.183594 L 51.4375 70.714844 C 51.652344 73.292969 52.257812 75.707031 52.953125 78.191406 L 53.238281 79.214844 C 53.535156 80.28125 53.835938 81.34375 54.136719 82.410156 L 54.746094 84.59375 C 55.238281 86.363281 55.734375 88.132812 56.234375 89.90625 L 57.300781 89.371094 C 57.734375 88.148438 58.128906 86.914062 58.472656 85.664062 L 58.792969 84.535156 C 59.019531 83.742188 59.238281 82.953125 59.460938 82.160156 C 59.796875 80.953125 60.140625 79.746094 60.492188 78.539062 C 60.707031 77.773438 60.921875 77.003906 61.136719 76.234375 L 61.453125 75.144531 C 61.839844 73.734375 62.125 72.542969 61.949219 71.082031 C 61.363281 69.710938 60.460938 68.75 59.464844 67.652344 L 58.316406 66.359375 L 57.300781 65.386719 Z M 55.082031 98.84375 C 54.019531 99.371094 52.980469 99.945312 51.96875 100.566406 L 51.96875 101.097656 L 61.5625 101.097656 C 58.621094 98.722656 58.621094 98.722656 55.082031 98.84375 " fill-opacity="1" fill-rule="nonzero"/></g><path fill="#f2901c" d="M 82.886719 40.867188 L 83.417969 40.867188 L 83.417969 61.652344 L 93.546875 61.652344 L 93.546875 100.566406 L 94.613281 101.097656 C 71.9375 102.128906 71.9375 102.128906 63.191406 97.664062 C 62.09375 97.066406 61.019531 96.433594 59.964844 95.769531 C 60.292969 92.355469 61.058594 89.222656 62.03125 85.941406 L 62.445312 84.503906 C 63.324219 81.484375 64.273438 78.488281 65.296875 75.511719 C 67.296875 77.011719 68.835938 78.589844 70.394531 80.542969 L 71.59375 82.039062 L 72.757812 83.507812 L 74.890625 86.171875 C 75.984375 80.328125 76.898438 74.484375 77.578125 68.574219 C 77.726562 67.328125 77.878906 66.078125 78.035156 64.832031 C 78.128906 64.03125 78.222656 63.226562 78.316406 62.425781 L 78.457031 61.308594 C 78.621094 59.8125 78.691406 58.652344 78.1875 57.21875 C 77.238281 55.871094 76.0625 54.875 74.824219 53.792969 L 73.351562 52.5 L 72.226562 51.527344 C 75.460938 47.640625 78.890625 43.984375 82.886719 40.867188 M 30.117188 41.398438 C 32.082031 42.578125 33.257812 43.34375 34.789062 44.902344 L 35.855469 45.980469 L 36.945312 47.09375 L 38.0625 48.230469 C 38.96875 49.148438 39.875 50.070312 40.777344 50.992188 C 40.277344 51.597656 39.777344 52.199219 39.273438 52.800781 L 38.425781 53.816406 C 37.578125 54.722656 37.578125 54.722656 36.046875 55.65625 L 34.914062 56.855469 C 34.324219 61.378906 35.273438 66.109375 35.914062 70.582031 L 36.472656 74.636719 L 36.757812 76.648438 C 37.21875 80 37.671875 83.351562 38.109375 86.707031 L 41.410156 82.910156 L 42.34375 81.835938 C 44.15625 79.75 45.941406 77.640625 47.707031 75.511719 C 49 76.808594 49.175781 77.707031 49.652344 79.46875 L 50.140625 81.226562 L 50.636719 83.074219 L 51.621094 86.664062 L 52.082031 88.371094 C 52.421875 89.609375 52.78125 90.835938 53.152344 92.0625 C 53.570312 93.636719 53.570312 93.636719 53.570312 95.769531 C 49.058594 98.757812 44.484375 100.976562 39.039062 101.351562 C 32.339844 101.640625 25.617188 101.394531 18.921875 101.097656 L 19.988281 100.566406 L 19.988281 61.652344 L 30.117188 61.652344 Z M 30.117188 41.398438 " fill-opacity="1" fill-rule="nonzero"/><path fill="#a75822" d="M 79.15625 10.484375 L 99.410156 10.484375 L 99.410156 57.921875 L 87.683594 57.921875 L 87.683594 26.472656 L 90.882812 26.472656 L 90.882812 16.347656 L 86.882812 16.578125 C 85.34375 16.625 83.871094 16.605469 82.351562 16.347656 C 80.5625 15.363281 79.335938 14.222656 78.089844 12.613281 Z M 14.125 10.484375 L 34.378906 10.484375 L 34.914062 12.613281 C 34.335938 13.886719 33.601562 14.625 32.597656 15.589844 C 30.621094 16.644531 28.890625 16.636719 26.683594 16.578125 L 22.652344 16.347656 L 22.652344 26.472656 L 25.851562 26.472656 L 25.851562 57.921875 L 14.125 57.921875 Z M 14.125 10.484375 " fill-opacity="1" fill-rule="nonzero"/><g clip-path="url(#cda4532083)"><path fill="#8e8e8e" d="M -2.398438 104.828125 L 115.933594 104.828125 L 115.933594 105.894531 L 114.867188 105.894531 L 114.867188 106.960938 L 112.734375 106.960938 L 112.734375 108.027344 L 0.796875 108.027344 L 0.796875 106.960938 L -1.332031 106.960938 L -1.332031 105.894531 L -2.398438 105.894531 Z M -2.398438 104.828125 " fill-opacity="1" fill-rule="nonzero"/><path fill="#8e8e8e" d="M -2.398438 104.828125 L 5.0625 105.363281 L 3.464844 106.429688 L 110.601562 106.960938 L 110.601562 105.894531 L 115.933594 104.828125 L 115.933594 105.894531 L 114.867188 105.894531 L 114.867188 106.960938 L 112.734375 106.960938 L 112.734375 108.027344 L 0.796875 108.027344 L 0.796875 106.960938 L -1.332031 106.960938 L -1.332031 105.894531 L -2.398438 105.894531 Z M -2.398438 104.828125 " fill-opacity="1" fill-rule="nonzero"/></g><g clip-path="url(#2870c9f1f3)"><path fill="#202020" d="M 110.070312 102.699219 L 112.734375 102.699219 L 112.734375 103.761719 L 114.867188 103.761719 L 114.867188 105.363281 L 81.820312 105.363281 L 81.820312 104.828125 L 112.203125 104.296875 Z M -1.332031 103.761719 L -0.460938 104.023438 C 1.011719 104.34375 2.371094 104.382812 3.878906 104.40625 L 5.753906 104.4375 L 7.769531 104.464844 L 9.839844 104.5 C 11.652344 104.527344 13.464844 104.554688 15.277344 104.578125 C 17.128906 104.609375 18.976562 104.636719 20.828125 104.664062 C 24.457031 104.722656 28.085938 104.777344 31.714844 104.828125 L 31.714844 105.363281 L -1.332031 105.363281 Z M -1.332031 103.761719 " fill-opacity="1" fill-rule="nonzero"/><path fill="#4a4a4a" d="M 110.070312 102.699219 L 112.734375 102.699219 L 112.734375 103.761719 L 114.867188 103.761719 L 114.867188 105.363281 L 103.140625 105.363281 L 103.140625 104.828125 L 112.203125 104.296875 Z M -1.332031 103.761719 L -0.535156 103.996094 C 1.320312 104.414062 3.175781 104.609375 5.0625 104.828125 L 5.0625 105.363281 L -1.332031 105.363281 Z M -1.332031 103.761719 " fill-opacity="1" fill-rule="nonzero"/></g></svg>